<?xml version="1.0" standalone="no"?>
<!DOCTYPE svg PUBLIC "-//W3C//DTD SVG 20010904//EN"
 "http://www.w3.org/TR/2001/REC-SVG-20010904/DTD/svg10.dtd">
<svg version="1.0" xmlns="http://www.w3.org/2000/svg"
 width="512.000000pt" height="512.000000pt" viewBox="0 0 512.000000 512.000000"
 preserveAspectRatio="xMidYMid meet">
<metadata>
Created by potrace 1.11, written by Peter Selinger 2001-2013
</metadata>
<g transform="translate(0.000000,512.000000) scale(0.100000,-0.100000)"
fill="#000000" stroke="none">
<path d="M2560 4800 l0 -110 -105 0 -105 0 0 -105 0 -105 320 0 320 0 0 105 0
104 -107 3 -108 3 3 108 4 107 -111 0 -111 0 0 -110z"/>
<path d="M1192 4255 c-195 -43 -308 -161 -332 -350 -7 -53 -10 -457 -8 -1190
l3 -1110 24 -63 c29 -79 108 -167 183 -205 121 -60 37 -58 1629 -55 l1454 3
58 22 c127 48 204 119 249 231 l23 57 0 1180 0 1180 -23 57 c-50 124 -186 225
-332 248 -42 6 -565 10 -1465 9 -1144 0 -1412 -3 -1463 -14z"/>
<path d="M910 1051 c-60 -32 -76 -134 -28 -178 19 -17 60 -18 716 -21 l696 -2
-264 -265 -265 -265 78 -77 77 -78 343 343 342 342 65 0 65 0 340 -340 340
-340 75 75 75 75 -265 265 -264 265 698 2 698 3 24 28 c45 53 23 146 -41 173
-29 12 -290 14 -1752 14 -1655 0 -1720 -1 -1753 -19z"/>
</g>
</svg>
